<?xml version="1.0" encoding="UTF-8" standalone="no"?>
<!-- Created with Inkscape (http://www.inkscape.org/) -->

<svg
   width="99.298927mm"
   height="54.509884mm"
   viewBox="0 0 99.298926 54.509883"
   version="1.1"
   id="svg5"
   xmlns="http://www.w3.org/2000/svg">
  <defs
     id="defs2" />
  <g
     id="layer1"
     transform="translate(-88.510841,-94.229178)">
    <circle
       style="opacity:0;fill:#808080;stroke:#feffff;stroke-width:0.264583"
       id="path976"
       cx="10.499578"
       cy="107.02168"
       r="14.000047" />
    <circle
       style="opacity:1;fill:#ececec;stroke:#feffff;stroke-width:0.311919"
       id="path1246"
       cx="116.44323"
       cy="120.89027"
       r="23.179531" />
    <path
       style="fill:#000000;stroke-width:0.177646"
       d="m 108.17066,141.88381 c -1.78711,-0.63903 -2.62531,-1.97162 -2.97748,-4.73356 -0.26153,-2.04979 -0.13707,-3.05745 0.56946,-4.61635 0.69205,-1.52693 0.74217,-1.67967 0.62375,-1.90058 -0.0837,-0.15563 -0.25765,-0.15069 -0.65248,0.0186 -2.46266,1.0559 -5.17914,-1.20449 -4.75247,-3.95451 0.17262,-1.11221 1.30488,-3.22979 2.15953,-4.0386 0.71721,-0.67875 3.28039,-2.49259 3.58464,-2.53668 0.0815,-0.012 0.25336,-0.10813 0.38181,-0.2142 0.18499,-0.15264 -0.0392,-0.41722 -1.07803,-1.27253 -0.72137,-0.59392 -1.57984,-1.50055 -1.90772,-2.01477 -0.84163,-1.31993 -1.34094,-3.27683 -1.22031,-4.7827 l 0.094,-1.1722 -0.83119,-0.6436 c -1.8375,-1.42277 -1.87468,-3.89817 -0.0909,-6.04628 1.09125,-1.3141 2.34249,-2.04686 4.03005,-2.3602 1.67695,-0.31134 2.62661,-0.12123 3.71471,0.74356 0.42231,0.33564 0.83756,0.55396 0.92278,0.48514 0.37416,-0.30214 4.45343,-0.96798 5.8885,-0.96113 l 1.49476,0.007 0.48848,-0.60783 c 2.23833,-2.785113 7.75689,-2.062458 9.62711,1.26067 0.87408,1.55315 0.80057,2.97437 -0.22204,4.29296 -0.60583,0.78115 -0.61774,0.82989 -0.3558,1.45534 0.44794,1.06955 0.62232,3.09041 0.37315,4.32467 -0.2891,1.43239 -0.7579,2.44615 -1.72494,3.73032 -0.42826,0.56874 -0.74033,1.05605 -0.69346,1.08286 0.0469,0.0269 0.65333,0.20487 1.34767,0.39567 2.6646,0.73201 4.52927,1.92294 5.79357,3.70017 0.9284,1.30512 1.1401,2.51422 0.67837,3.87452 -0.53643,1.58035 -1.88394,2.35621 -3.85595,2.22019 -0.3902,-0.027 -0.44028,0.0285 -0.36834,0.40752 0.046,0.24128 0.40329,0.80499 0.79443,1.25268 1.05758,1.21045 1.59993,2.52643 1.8541,4.49899 0.34604,2.68056 -0.19737,4.28085 -1.81129,5.34002 -0.83633,0.54883 -1.04436,0.60809 -2.55001,0.72629 -1.28767,0.10104 -1.89856,0.0536 -2.84752,-0.22134 -0.66448,-0.19248 -1.36567,-0.32136 -1.55819,-0.28633 -3.43318,0.62514 -6.3284,1.01346 -7.07737,0.94921 -0.82916,-0.0712 -1.00981,-0.0183 -2.22671,0.65042 -1.07071,0.58839 -1.64335,0.78172 -2.98983,1.00933 -1.52214,0.25735 -1.74842,0.25188 -2.62884,-0.063 z m 3.88417,-1.54716 c 3.5042,-1.30668 4.32861,-4.22817 1.95853,-6.94054 -1.39689,-1.59864 -3.04854,-2.33654 -4.76064,-2.12691 -1.36876,0.16824 -2.13472,0.8966 -2.71658,2.58585 -0.39396,1.14374 -0.41251,1.39035 -0.22199,2.94866 0.27334,2.23789 0.78858,3.09499 2.21745,3.69068 1.10264,0.45969 1.97176,0.42078 3.52323,-0.15774 z m 16.94714,-2.1583 c 1.30637,-0.66085 1.86567,-1.88162 1.74847,-3.81623 -0.14248,-2.35225 -1.18674,-4.28842 -2.73009,-5.06185 -0.92846,-0.46528 -2.35936,-0.26275 -3.49564,0.49489 -1.01138,0.67433 -2.2217,2.31682 -2.62625,3.56403 -0.41452,1.27795 -0.0977,2.98221 0.7061,3.79913 1.39863,1.42132 4.59629,1.93116 6.39742,1.02004 z m -9.35839,-3.15855 c 0.42342,-0.38029 0.76838,-0.96477 1.06789,-1.80944 0.55922,-1.577 1.7287,-3.2418 2.99451,-4.26281 0.83693,-0.67507 1.03838,-0.9608 1.35094,-1.91635 0.4829,-1.47627 0.35349,-2.58781 -0.43977,-3.77764 -1.54216,-2.31297 -4.79118,-2.41835 -6.64779,-0.2156 l -0.69372,0.82305 -0.62993,-0.50004 c -0.99705,-0.79143 -1.88053,-1.02944 -3.20153,-0.86243 -1.37058,0.17327 -2.17882,0.65228 -2.90044,1.71897 -0.64579,0.95457 -0.75856,1.48149 -0.59808,2.79413 0.19704,1.61542 0.89631,2.57855 2.87802,3.96688 0.8773,0.61462 2.03589,1.63001 2.57464,2.2564 0.99796,1.16031 2.79892,2.45036 3.32748,2.38354 0.1608,-0.0205 0.57381,-0.28971 0.91783,-0.59866 z m -1.53522,-14.3726 c 1.97181,-0.58116 3.80736,-2.0918 4.49543,-3.69975 1.21981,-2.85056 -0.77101,-5.80205 -4.51028,-6.68664 -1.38654,-0.32803 -3.99013,-0.0416 -5.31673,0.58483 -2.59031,1.22334 -4.09632,3.43284 -3.82495,5.6116 0.1597,1.28212 0.81159,2.28327 2.08801,3.20668 1.97113,1.42597 4.4135,1.76567 7.06851,0.9832 z m -4.99422,-2.52953 c -0.53085,-0.25294 -0.78734,-0.85444 -0.38176,-0.89524 0.12163,-0.012 0.38966,0.0747 0.59583,0.19326 1.10784,0.63697 2.89526,-0.82541 2.20237,-1.80185 -0.11829,-0.16675 -0.5119,-0.4385 -0.87457,-0.60389 -1.63866,-0.74719 -2.17734,-1.86058 -1.33935,-2.7682 0.57295,-0.62053 1.37848,-0.9043 2.64964,-0.93341 1.7984,-0.0412 2.7684,0.68168 2.45457,1.82922 -0.0799,0.2925 -0.56479,0.94801 -1.07735,1.45671 -1.06973,1.06163 -1.11524,1.4244 -0.26167,2.08639 0.65859,0.51076 1.25429,0.50641 2.01105,-0.0147 0.69774,-0.48042 1.08555,-0.19748 0.59545,0.43437 -0.49053,0.63252 -2.00287,0.81978 -2.83832,0.35165 l -0.59431,-0.33314 -0.46907,0.44797 c -0.63626,0.60765 -1.97454,0.88356 -2.67248,0.551 z m -1.84757,-7.24316 c 0.6289,-0.81091 0.29323,-1.73978 -0.70552,-1.95233 -0.93198,-0.19834 -1.88962,0.61011 -1.77709,1.50026 0.0654,0.51662 0.94601,1.08584 1.55995,1.00821 0.34339,-0.0434 0.68444,-0.24897 0.92266,-0.55614 z m 9.91361,-1.16573 c 0.48096,-0.57683 0.52225,-1.09394 0.12457,-1.56057 -0.47946,-0.56259 -1.19352,-0.70868 -1.7927,-0.36685 -0.89708,0.5118 -0.9567,1.62764 -0.11401,2.13365 0.64259,0.38586 1.35743,0.30316 1.78215,-0.20628 z m -17.06483,-1.62768 c 0.78669,-1.34232 2.12597,-2.69077 3.77731,-3.80315 l 1.132,-0.76255 -0.43616,-0.36059 c -0.94971,-0.78522 -2.90844,-0.65574 -4.31377,0.28518 -2.28388,1.5291 -2.87203,4.12396 -1.26023,5.55992 0.16941,0.15092 0.33076,0.27153 0.35854,0.26802 0.0278,-0.004 0.36182,-0.53757 0.74231,-1.18683 z m 23.14491,-3.09679 c 0.40023,-1.46361 -0.82266,-3.15962 -2.80249,-3.88665 -1.47124,-0.54026 -2.65351,-0.44778 -3.7421,0.29274 -0.92606,0.62994 -0.96315,0.88587 -0.15138,1.04453 1.16107,0.22694 3.40967,1.45868 4.73134,2.59175 1.1797,1.01134 1.31577,1.08163 1.55484,0.8032 0.14409,-0.16781 0.3285,-0.54833 0.4098,-0.84557 z"
       id="path836" />
  </g>
  <text
     xml:space="preserve"
     style="font-style:normal;font-weight:normal;font-size:14.9936px;line-height:1.25;font-family:sans-serif;fill:#ffffff;fill-opacity:1;stroke:none;stroke-width:0.374842"
     x="52.996639"
     y="21.340914"
     id="text2301"><tspan
       id="tspan2299"
       style="font-style:normal;font-variant:normal;font-weight:normal;font-stretch:normal;font-family:Dyuthi;-inkscape-font-specification:Dyuthi;stroke-width:0.374842;fill:#ffffff"
       x="52.996639"
       y="21.340914">TOY</tspan><tspan
       style="font-style:normal;font-variant:normal;font-weight:normal;font-stretch:normal;font-family:Dyuthi;-inkscape-font-specification:Dyuthi;stroke-width:0.374842;fill:#ffffff"
       x="52.996639"
       y="40.976089"
       id="tspan12115">STORE</tspan></text>
</svg>
